# xmcd
#
# Track frame offsets:
#	150
#	14524
#	37782
#	57704
#	71954
#	96754
#	112507
#	134302
#	154523
#	177580
#
# Disc length: 2553
#
# Revision: 2
# Processed by: cddbd v1.5.1PL0 Copyright (c) Steve Scherf et al.
# Submitted via: audiograbber 1.82.02
# Normalized: r1:DSETVAR1
#
DISCID=8109f70a
DTITLE=Various Artist - W Hotels  Welcome to Wonderland
DYEAR=1900
DGENRE=Slow Rock
TTITLE0=Thievery Corporation - Le Monde
TTITLE1=The Peter Malick Group featuring Norah Jones - Heart Of Mine
TTITLE2=Joan Osborne - How Sweet It Is (to be loved by you)
TTITLE3=Bob Marley and The Wailers - Soul Shakedown Party
TTITLE4=Moby - Bodyrock  (Rae and Christian remix)
TTITLE5=Tiga - Hot in Herre
TTITLE6=Horace Silver - Song For My Father (MNO remix)
TTITLE7=Grant Lee Phillips - Beautiful Dreamers
TTITLE8=Poncho Sanchez featuring Ray Charles - Mary Ann
TTITLE9=The Ben Taylor Band - Day After Day
EXTD=
EXTT0=
EXTT1=
EXTT2=
EXTT3=
EXTT4=
EXTT5=
EXTT6=
EXTT7=
EXTT8=
EXTT9=
PLAYORDER=
